<svg width="14" height="17" viewBox="0 0 14 17" fill="none" xmlns="http://www.w3.org/2000/svg">
<path d="M11.1749 15.745C10.3174 16.5763 9.38113 16.445 8.47988 16.0512C7.52612 15.6487 6.65112 15.6312 5.64487 16.0512C4.38487 16.5937 3.71988 16.4363 2.96738 15.745C-1.30263 11.3438 -0.672625 4.64125 4.17488 4.39625C5.35613 4.4575 6.17863 5.04375 6.86987 5.09625C7.90238 4.88625 8.89112 4.2825 9.99362 4.36125C11.3149 4.46625 12.3124 4.99125 12.9686 5.93625C10.2386 7.5725 10.8861 11.1688 13.3886 12.175C12.8899 13.4875 12.2424 14.7913 11.1661 15.7538L11.1749 15.745ZM6.78237 4.34375C6.65112 2.3925 8.23488 0.7825 10.0549 0.625C10.3086 2.8825 8.00737 4.5625 6.78237 4.34375Z" fill="#AC95D2"/>
</svg>
