<svg width="10" height="11" viewBox="0 0 10 11" fill="none" xmlns="http://www.w3.org/2000/svg">
<path d="M5.32522 9.75945C5.13207 9.61618 4.86793 9.61618 4.67478 9.75945C4.86803 9.90239 5.13197 9.90239 5.32522 9.75945ZM4.67478 9.75945C4.99856 9.51928 4.99856 9.03467 4.67478 8.7945L1.88129 6.72239C1.74419 6.62069 1.55668 6.62069 1.41958 6.72239C1.21072 6.87731 1.21072 7.18992 1.41958 7.34485L4.67478 9.75945ZM5.32522 9.75945L8.58042 7.34485C8.78928 7.18992 8.78928 6.87732 8.58042 6.72239C8.44332 6.62069 8.25581 6.62069 8.11871 6.72239L5.32522 8.7945C5.00144 9.03467 5.00144 9.51928 5.32522 9.75945ZM5 9.51821C5.25369 9.51821 5.45935 9.31255 5.45935 9.05886L5.45935 1.45935C5.45935 1.20566 5.25369 1 5 1C4.74631 1 4.54065 1.20566 4.54065 1.45935L4.54065 9.05886C4.54065 9.31255 4.74631 9.51821 5 9.51821Z" fill="#0F0F14"/>
<path d="M4.67478 9.75945V9.75945C4.86793 9.61618 5.13207 9.61618 5.32522 9.75945V9.75945M4.67478 9.75945V9.75945C4.86803 9.90239 5.13197 9.90239 5.32522 9.75945V9.75945M4.67478 9.75945L1.41958 7.34485C1.21072 7.18992 1.21072 6.87731 1.41958 6.72239V6.72239C1.55668 6.62069 1.74419 6.62069 1.88129 6.72239L4.67478 8.7945C4.99856 9.03467 4.99856 9.51928 4.67478 9.75945V9.75945ZM5.32522 9.75945L8.58042 7.34485C8.78928 7.18992 8.78928 6.87732 8.58042 6.72239V6.72239C8.44332 6.62069 8.25581 6.62069 8.11871 6.72239L5.32522 8.7945C5.00144 9.03467 5.00144 9.51928 5.32522 9.75945V9.75945ZM4.54065 9.05886L4.54065 1.45935C4.54065 1.20566 4.74631 1 5 1V1C5.25369 1 5.45935 1.20566 5.45935 1.45935L5.45935 9.05886C5.45935 9.31255 5.25369 9.51821 5 9.51821V9.51821C4.74631 9.51821 4.54065 9.31255 4.54065 9.05886Z" stroke="#0D0B0B" stroke-width="0.7"/>
</svg>
