<svg width="25" height="26" viewBox="0 0 25 26" fill="none" xmlns="http://www.w3.org/2000/svg">
<path fill-rule="evenodd" clip-rule="evenodd" d="M16.0533 0.606659C16.2905 0.488108 16.5649 0.468564 16.8165 0.552322C17.068 0.63608 17.276 0.816285 17.3947 1.05333L20.3293 6.92266C22.1333 7.06133 23.2653 7.41599 23.996 8.31866C25.196 9.80399 24.7173 12.0387 23.76 16.5093L23.188 19.176C22.5387 22.2067 22.2147 23.7213 21.1147 24.6107C20.0147 25.5 18.4653 25.5 15.3667 25.5H9.63333C6.53467 25.5 4.98533 25.5 3.88667 24.6107C2.78533 23.7213 2.46 22.2067 1.812 19.176L1.24 16.5093C0.282667 12.0387 -0.197333 9.80399 1.004 8.31866C1.73467 7.41466 2.86667 7.06133 4.67067 6.92266L7.60533 1.05333C7.72503 0.818166 7.93282 0.639848 8.18342 0.557229C8.43402 0.474611 8.70712 0.494389 8.94321 0.612254C9.17929 0.73012 9.35922 0.936518 9.44378 1.18647C9.52835 1.43642 9.51069 1.70967 9.39467 1.94666L6.948 6.83999C7.592 6.83333 8.29467 6.83333 9.06267 6.83333H15.9373C16.7053 6.83333 17.408 6.83333 18.052 6.83999L15.6053 1.94666C15.4869 1.70938 15.4675 1.43476 15.5515 1.18321C15.6356 0.931666 15.8161 0.725128 16.0533 0.606659ZM6.16667 13.5C6.16667 13.2348 6.27202 12.9804 6.45956 12.7929C6.6471 12.6054 6.90145 12.5 7.16667 12.5H17.8333C18.0985 12.5 18.3529 12.6054 18.5404 12.7929C18.728 12.9804 18.8333 13.2348 18.8333 13.5C18.8333 13.7652 18.728 14.0196 18.5404 14.2071C18.3529 14.3946 18.0985 14.5 17.8333 14.5H7.16667C6.90145 14.5 6.6471 14.3946 6.45956 14.2071C6.27202 14.0196 6.16667 13.7652 6.16667 13.5ZM9.83333 16.5C9.56812 16.5 9.31376 16.6054 9.12623 16.7929C8.93869 16.9804 8.83333 17.2348 8.83333 17.5C8.83333 17.7652 8.93869 18.0196 9.12623 18.2071C9.31376 18.3946 9.56812 18.5 9.83333 18.5H15.1667C15.4319 18.5 15.6862 18.3946 15.8738 18.2071C16.0613 18.0196 16.1667 17.7652 16.1667 17.5C16.1667 17.2348 16.0613 16.9804 15.8738 16.7929C15.6862 16.6054 15.4319 16.5 15.1667 16.5H9.83333Z" fill="#0F0F14"/>
</svg>
