<svg width="18" height="12" viewBox="0 0 18 12" fill="none" xmlns="http://www.w3.org/2000/svg">
<path fill-rule="evenodd" clip-rule="evenodd" d="M6.5 5.16666C7.88071 5.16666 9 4.04737 9 2.66666C9 1.28594 7.88071 0.166656 6.5 0.166656C5.3351 0.166656 4.35629 0.96339 4.07876 2.04166H1.5C1.15482 2.04166 0.875 2.32148 0.875 2.66666C0.875 3.01183 1.15482 3.29166 1.5 3.29166H4.07876C4.35629 4.36992 5.3351 5.16666 6.5 5.16666ZM10.875 2.66666C10.875 2.32148 11.1548 2.04166 11.5 2.04166H16.5C16.8452 2.04166 17.125 2.32148 17.125 2.66666C17.125 3.01183 16.8452 3.29166 16.5 3.29166H11.5C11.1548 3.29166 10.875 3.01183 10.875 2.66666ZM13.9212 9.95832C13.6437 11.0366 12.6649 11.8333 11.5 11.8333C10.1193 11.8333 9 10.714 9 9.33332C9 7.95261 10.1193 6.83332 11.5 6.83332C12.6649 6.83332 13.6437 7.63006 13.9212 8.70832H16.5C16.8452 8.70832 17.125 8.98814 17.125 9.33332C17.125 9.6785 16.8452 9.95832 16.5 9.95832H13.9212ZM0.875 9.33332C0.875 8.98814 1.15482 8.70832 1.5 8.70832H6.5C6.84518 8.70832 7.125 8.98814 7.125 9.33332C7.125 9.6785 6.84518 9.95832 6.5 9.95832H1.5C1.15482 9.95832 0.875 9.6785 0.875 9.33332Z" fill="black"/>
</svg>
