<svg width="20" height="18" viewBox="0 0 20 18" fill="none" xmlns="http://www.w3.org/2000/svg">
  <path d="M9.90139 8.99436C12.3837 8.99436 14.3959 6.98209 14.3959 4.49982C14.3959 2.01755 12.3837 0.00527954 9.90139 0.00527954C7.41913 0.00527954 5.40685 2.01755 5.40685 4.49982C5.40685 6.98209 7.41913 8.99436 9.90139 8.99436Z" fill="black"/>
  <path fill-rule="evenodd" clip-rule="evenodd" d="M2.44027 17.3115C2.78035 13.4911 5.9932 10.4925 9.9012 10.4925C10.1387 10.4925 10.3731 10.5038 10.6046 10.5255C11.0166 10.5637 11.3822 10.2603 11.4204 9.84907C11.4586 9.43707 11.1552 9.07151 10.7439 9.03331C10.4668 9.00784 10.1859 8.99435 9.9012 8.99435C5.21115 8.99435 1.35558 12.5945 0.948079 17.1789C0.911374 17.5909 1.21625 17.955 1.6275 17.9917C2.0395 18.0284 2.40356 17.7235 2.44027 17.3115Z" fill="black"/>
  <path fill-rule="evenodd" clip-rule="evenodd" d="M19.0549 13.4889C19.0549 13.0919 18.8969 12.7106 18.616 12.4297C18.335 12.1488 17.9538 11.9907 17.556 11.9907C16.2593 11.9907 13.6098 11.9907 12.3131 11.9907C11.9153 11.9907 11.5341 12.1488 11.2531 12.4297C10.9722 12.7106 10.8142 13.0919 10.8149 13.4889C10.8149 14.3204 10.8149 15.6538 10.8149 16.4853C10.8142 16.8823 10.9722 17.2636 11.2531 17.5445C11.5341 17.8254 11.9153 17.9834 12.3131 17.9834C13.6098 17.9834 16.2593 17.9834 17.5567 17.9834C17.9538 17.9834 18.335 17.8254 18.616 17.5445C18.8969 17.2636 19.0549 16.8823 19.0549 16.4853V13.4889ZM17.5567 13.8927L15.2391 14.9227C15.045 15.0088 14.8241 15.0088 14.63 14.9227L12.3131 13.8927V16.4853H17.5567V13.8927Z" fill="black"/>
</svg>
