<svg width="16" height="11" viewBox="0 0 16 11" fill="none" xmlns="http://www.w3.org/2000/svg">
<path d="M3.75609 1.24055C3.89123 1.37421 4.10877 1.37421 4.24391 1.24055C4.10866 1.10716 3.89134 1.10716 3.75609 1.24055ZM4.24391 1.24055C3.97537 1.50615 3.97537 1.9399 4.24391 2.2055L6.27095 4.21028C6.4046 4.34246 6.61974 4.34246 6.75339 4.21028C6.88915 4.07602 6.88915 3.85675 6.75339 3.72248L4.24391 1.24055ZM3.75609 1.24055L1.24661 3.72248C1.11085 3.85675 1.11085 4.07602 1.24661 4.21028C1.38026 4.34246 1.5954 4.34246 1.72905 4.21028L3.75609 2.2055C4.02463 1.9399 4.02463 1.50615 3.75609 1.24055ZM4 1.48179C3.80973 1.48179 3.65549 1.63603 3.65549 1.8263V9.65549C3.65549 9.84576 3.80973 10 4 10C4.19027 10 4.34451 9.84576 4.34451 9.65549V1.8263C4.34451 1.63603 4.19027 1.48179 4 1.48179Z" fill="#0F0F14"/>
<path d="M4.24391 1.24055V1.24055C4.10877 1.37421 3.89123 1.37421 3.75609 1.24055V1.24055M4.24391 1.24055V1.24055C4.10866 1.10716 3.89134 1.10716 3.75609 1.24055V1.24055M4.24391 1.24055L6.75339 3.72248C6.88915 3.85675 6.88915 4.07602 6.75339 4.21028V4.21028C6.61974 4.34246 6.4046 4.34246 6.27095 4.21028L4.24391 2.2055C3.97537 1.9399 3.97537 1.50615 4.24391 1.24055V1.24055ZM3.75609 1.24055L1.24661 3.72248C1.11085 3.85675 1.11085 4.07602 1.24661 4.21028V4.21028C1.38026 4.34246 1.5954 4.34246 1.72905 4.21028L3.75609 2.2055C4.02463 1.9399 4.02463 1.50615 3.75609 1.24055V1.24055ZM4.34451 1.8263V9.65549C4.34451 9.84576 4.19027 10 4 10V10C3.80973 10 3.65549 9.84576 3.65549 9.65549V1.8263C3.65549 1.63603 3.80973 1.48179 4 1.48179V1.48179C4.19027 1.48179 4.34451 1.63603 4.34451 1.8263Z" stroke="#0D0B0B" stroke-width="0.7"/>
<path d="M11.3252 9.75945C11.1321 9.61618 10.8679 9.61618 10.6748 9.75945C10.868 9.90239 11.132 9.90239 11.3252 9.75945ZM10.6748 9.75945C10.9986 9.51928 10.9986 9.03467 10.6748 8.7945L7.88129 6.72239C7.74419 6.62069 7.55668 6.62069 7.41958 6.72239C7.21072 6.87731 7.21072 7.18992 7.41958 7.34485L10.6748 9.75945ZM11.3252 9.75945L14.5804 7.34485C14.7893 7.18992 14.7893 6.87732 14.5804 6.72239C14.4433 6.62069 14.2558 6.62069 14.1187 6.72239L11.3252 8.7945C11.0014 9.03467 11.0014 9.51928 11.3252 9.75945ZM11 9.51821C11.2537 9.51821 11.4593 9.31255 11.4593 9.05886L11.4593 1.45935C11.4593 1.20566 11.2537 1 11 1C10.7463 1 10.5407 1.20566 10.5407 1.45935L10.5407 9.05886C10.5407 9.31255 10.7463 9.51821 11 9.51821Z" fill="#0F0F14"/>
<path d="M10.6748 9.75945V9.75945C10.8679 9.61618 11.1321 9.61618 11.3252 9.75945V9.75945M10.6748 9.75945V9.75945C10.868 9.90239 11.132 9.90239 11.3252 9.75945V9.75945M10.6748 9.75945L7.41958 7.34485C7.21072 7.18992 7.21072 6.87731 7.41958 6.72239V6.72239C7.55668 6.62069 7.74419 6.62069 7.88129 6.72239L10.6748 8.7945C10.9986 9.03467 10.9986 9.51928 10.6748 9.75945V9.75945ZM11.3252 9.75945L14.5804 7.34485C14.7893 7.18992 14.7893 6.87732 14.5804 6.72239V6.72239C14.4433 6.62069 14.2558 6.62069 14.1187 6.72239L11.3252 8.7945C11.0014 9.03467 11.0014 9.51928 11.3252 9.75945V9.75945ZM10.5407 9.05886L10.5407 1.45935C10.5407 1.20566 10.7463 1 11 1V1C11.2537 1 11.4593 1.20566 11.4593 1.45935L11.4593 9.05886C11.4593 9.31255 11.2537 9.51821 11 9.51821V9.51821C10.7463 9.51821 10.5407 9.31255 10.5407 9.05886Z" stroke="#0D0B0B" stroke-width="0.7"/>
</svg>
