<svg width="16" height="16" viewBox="0 0 16 16" fill="none" xmlns="http://www.w3.org/2000/svg">
<path d="M3.06239 4.77192L5.09119 6.805L3.95999 7.93984L0 3.96992L3.95999 0L5.09119 1.13484L3.06239 3.16791H8.79998C10.4974 3.16791 12.1252 3.84389 13.3255 5.04713C14.5257 6.25036 15.2 7.88231 15.2 9.58394C15.2 11.2856 14.5257 12.9175 13.3255 14.1208C12.1252 15.324 10.4974 16 8.79998 16H1.6V14.396H8.79998C10.073 14.396 11.2939 13.889 12.1941 12.9866C13.0943 12.0841 13.6 10.8602 13.6 9.58394C13.6 8.30772 13.0943 7.08376 12.1941 6.18133C11.2939 5.2789 10.073 4.77192 8.79998 4.77192H3.06239Z" fill="#0F0F14"/>
</svg>
