<svg width="232" height="290" viewBox="0 0 232 290" fill="none" xmlns="http://www.w3.org/2000/svg">
<path d="M0 288.5L0 133.699C0 76.698 23.1042 0.697266 115.521 0.697266C207.938 0.697266 231.042 76.698 231.042 133.699V288.5C231.042 289.052 230.588 289.511 230.045 289.41C228.002 289.033 226.455 287.507 224.482 285.559C219.918 281.056 213.072 274.3 192.535 274.3C171.998 274.3 165.152 281.056 160.589 285.559C158.307 287.811 156.595 289.5 154.028 289.5C151.461 289.5 149.75 287.811 147.468 285.559C142.904 281.056 136.058 274.3 115.521 274.3C91.9679 274.3 86.2005 281.321 82.5051 285.819C80.7631 287.94 79.4814 289.5 77.0141 289.5C74.4469 289.5 72.7355 287.811 70.4536 285.559C65.8898 281.056 59.0441 274.3 38.507 274.3C17.9699 274.3 11.1243 281.056 6.56045 285.559C4.58699 287.507 3.04021 289.033 0.997584 289.41C0.454476 289.511 0 289.052 0 288.5Z" fill="black"/>
<path d="M0 288.5L0 133.699C0 76.698 23.1042 0.697266 115.521 0.697266C207.938 0.697266 231.042 76.698 231.042 133.699V288.5C231.042 289.052 230.588 289.511 230.045 289.41C228.002 289.033 226.455 287.507 224.482 285.559C219.918 281.056 213.072 274.3 192.535 274.3C171.998 274.3 165.152 281.056 160.589 285.559C158.307 287.811 156.595 289.5 154.028 289.5C151.461 289.5 149.75 287.811 147.468 285.559C142.904 281.056 136.058 274.3 115.521 274.3C91.9679 274.3 86.2005 281.321 82.5051 285.819C80.7631 287.94 79.4814 289.5 77.0141 289.5C74.4469 289.5 72.7355 287.811 70.4536 285.559C65.8898 281.056 59.0441 274.3 38.507 274.3C17.9699 274.3 11.1243 281.056 6.56045 285.559C4.58699 287.507 3.04021 289.033 0.997584 289.41C0.454476 289.511 0 289.052 0 288.5Z" stroke="black"/>
<path d="M96.9041 132.64C96.9041 145.4 83.9739 155.744 68.0238 155.744C52.0736 155.744 39.1435 145.4 39.1435 132.64C39.1435 119.88 52.0736 109.535 68.0238 109.535C83.9739 109.535 96.9041 119.88 96.9041 132.64Z" fill="#CCC2DC"/>
<path d="M191.421 132.64C191.421 145.4 178.491 155.744 162.541 155.744C146.591 155.744 133.661 145.4 133.661 132.64C133.661 119.88 146.591 109.535 162.541 109.535C178.491 109.535 191.421 119.88 191.421 132.64Z" fill="#CCC2DC"/>
<path d="M176.614 123.068C176.614 135.031 166.916 144.729 154.954 144.729C142.991 144.729 133.294 135.031 133.294 123.068C133.294 111.106 142.991 101.408 154.954 101.408C166.916 101.408 176.614 111.106 176.614 123.068Z" fill="black"/>
<path d="M82.8148 123.068C82.8148 135.031 73.1172 144.729 61.1546 144.729C49.192 144.729 39.4944 135.031 39.4944 123.068C39.4944 111.106 49.192 101.408 61.1546 101.408C73.1172 101.408 82.8148 111.106 82.8148 123.068Z" fill="black"/>
</svg>
