<svg width="16" height="20" viewBox="0 0 16 20" fill="none" xmlns="http://www.w3.org/2000/svg">
<path d="M8 13.4474C7.17531 13.4474 6.33227 13.5216 5.5 13.7251V9.21053C5.5 7.82459 5.8056 6.73475 6.18344 6.16507C6.33268 5.94008 6.47032 5.8258 6.62055 5.74638C6.77441 5.66504 7.17044 5.5 8 5.5C8.82956 5.5 9.22559 5.66504 9.37945 5.74638C9.52968 5.8258 9.66732 5.94008 9.81656 6.16507C10.1944 6.73475 10.5 7.82459 10.5 9.21053V13.7518C9.67792 13.5355 8.83865 13.4474 8 13.4474ZM1.44828 16.2726C1.44837 16.2725 1.45016 16.2703 1.45336 16.2665C1.44979 16.2708 1.44819 16.2727 1.44828 16.2726Z" stroke="black" stroke-width="11"/>
<path d="M7 8.6C7 9.48366 6.10457 10.2 5 10.2C3.89543 10.2 3 9.48366 3 8.6C3 7.71634 3.89543 7 5 7C6.10457 7 7 7.71634 7 8.6Z" fill="#CCC2DC"/>
<path d="M13 8.6C13 9.48366 12.1046 10.2 11 10.2C9.89543 10.2 9 9.48366 9 8.6C9 7.71634 9.89543 7 11 7C12.1046 7 13 7.71634 13 8.6Z" fill="#CCC2DC"/>
<path d="M12 7.5C12 8.32843 11.3284 9 10.5 9C9.67158 9 9 8.32843 9 7.5C9 6.67157 9.67158 6 10.5 6C11.3284 6 12 6.67157 12 7.5Z" fill="black"/>
<path d="M6 7.5C6 8.32843 5.32843 9 4.5 9C3.67157 9 3 8.32843 3 7.5C3 6.67157 3.67157 6 4.5 6C5.32843 6 6 6.67157 6 7.5Z" fill="black"/>
</svg>
