<svg width="234" height="293" viewBox="0 0 234 293" fill="none" xmlns="http://www.w3.org/2000/svg">
<path d="M0 291.5L0 134.704C0 76.9737 23.4 0 117 0C210.6 0 234 76.9737 234 134.704V291.5C234 292.052 233.546 292.51 233.002 292.411C230.927 292.033 229.358 290.485 227.356 288.509C222.733 283.947 215.8 277.105 195 277.105C174.2 277.105 167.267 283.947 162.644 288.509C160.333 290.789 158.6 292.5 156 292.5C153.4 292.5 151.667 290.789 149.356 288.509C144.733 283.947 137.8 277.105 117 277.105C93.1452 277.105 87.3041 284.216 83.5613 288.772C81.797 290.92 80.4989 292.5 78 292.5C75.4 292.5 73.6667 290.789 71.3555 288.509C66.7333 283.947 59.8 277.105 39 277.105C18.2 277.105 11.2667 283.947 6.64445 288.509C4.64166 290.485 3.07277 292.033 0.997744 292.411C0.454397 292.51 0 292.052 0 291.5Z" fill="#EADFFC"/>
<path d="M0 291.5L0 134.704C0 76.9737 23.4 0 117 0C210.6 0 234 76.9737 234 134.704V291.5C234 292.052 233.546 292.51 233.002 292.411C230.927 292.033 229.358 290.485 227.356 288.509C222.733 283.947 215.8 277.105 195 277.105C174.2 277.105 167.267 283.947 162.644 288.509C160.333 290.789 158.6 292.5 156 292.5C153.4 292.5 151.667 290.789 149.356 288.509C144.733 283.947 137.8 277.105 117 277.105C93.1452 277.105 87.3041 284.216 83.5613 288.772C81.797 290.92 80.4989 292.5 78 292.5C75.4 292.5 73.6667 290.789 71.3555 288.509C66.7333 283.947 59.8 277.105 39 277.105C18.2 277.105 11.2667 283.947 6.64445 288.509C4.64166 290.485 3.07277 292.033 0.997744 292.411C0.454397 292.51 0 292.052 0 291.5Z" stroke="#EADFFC"/>
<path d="M137 124C137 124 146.5 132 165 132C183.5 132 193 124 193 124" stroke="black" stroke-width="10" stroke-linecap="round"/>
<path d="M41 124C41 124 50.5 132 69 132C87.5 132 97 124 97 124" stroke="black" stroke-width="10" stroke-linecap="round"/>
</svg>
