<svg width="17" height="17" viewBox="0 0 17 17" fill="none" xmlns="http://www.w3.org/2000/svg">
<path d="M1.60245 4.96043C2.25834 3.65436 3.26453 2.55644 4.50855 1.78937C5.75257 1.0223 7.18541 0.6163 8.64691 0.616761C10.7714 0.616761 12.5562 1.39799 13.9208 2.67034L11.6607 4.93126C10.8432 4.15003 9.80417 3.75192 8.64691 3.75192C6.59333 3.75192 4.85507 5.13938 4.23624 7.00218C4.07857 7.47518 3.98871 7.97971 3.98871 8.5C3.98871 9.02029 4.07857 9.52482 4.23624 9.99782C4.85586 11.8614 6.59333 13.2481 8.64691 13.2481C9.70721 13.2481 10.6098 12.9682 11.3162 12.4952C11.7257 12.2256 12.0762 11.8758 12.3467 11.4669C12.6171 11.0579 12.8018 10.5984 12.8897 10.1161H8.64691V7.06683H16.0713C16.1644 7.58239 16.2148 8.12003 16.2148 8.67895C16.2148 11.0802 15.3555 13.1014 13.864 14.4731C12.5602 15.6777 10.7754 16.3832 8.64691 16.3832C7.61155 16.3837 6.58626 16.18 5.62964 15.784C4.67301 15.388 3.8038 14.8073 3.0717 14.0752C2.33959 13.3431 1.75893 12.4739 1.3629 11.5173C0.966881 10.5606 0.763258 9.53536 0.763673 8.5C0.763673 7.22764 1.06797 6.02466 1.60245 4.96043Z" fill="#AC95D2"/>
</svg>
