<svg width="14" height="14" viewBox="0 0 14 14" fill="none" xmlns="http://www.w3.org/2000/svg">
<path d="M7.00245 5.09658C6.53526 5.09658 6.09776 5.27783 5.76651 5.60908C5.43682 5.94033 5.25401 6.37783 5.25401 6.84501C5.25401 7.3122 5.43682 7.7497 5.76651 8.08095C6.09776 8.41064 6.53526 8.59345 7.00245 8.59345C7.46964 8.59345 7.90714 8.41064 8.23839 8.08095C8.56807 7.7497 8.75089 7.3122 8.75089 6.84501C8.75089 6.37783 8.56807 5.94033 8.23839 5.60908C8.07659 5.44604 7.88402 5.31678 7.67185 5.2288C7.45968 5.14082 7.23214 5.09587 7.00245 5.09658ZM13.4446 8.77626L12.4228 7.90283C12.4712 7.60595 12.4962 7.30283 12.4962 7.00126C12.4962 6.6997 12.4712 6.39501 12.4228 6.0997L13.4446 5.22626C13.5218 5.16018 13.5771 5.07216 13.603 4.97392C13.629 4.87567 13.6244 4.77185 13.5899 4.67626L13.5759 4.63564C13.2947 3.84922 12.8733 3.12026 12.3321 2.48408L12.304 2.45126C12.2383 2.374 12.1507 2.31846 12.0528 2.29196C11.9549 2.26546 11.8513 2.26925 11.7556 2.30283L10.4868 2.75439C10.0181 2.37001 9.4962 2.06689 8.93057 1.85595L8.68526 0.529388C8.66675 0.429454 8.61828 0.337517 8.54627 0.265791C8.47427 0.194065 8.38214 0.145946 8.28214 0.127826L8.23995 0.120013C7.42745 -0.0268616 6.5712 -0.0268616 5.7587 0.120013L5.71651 0.127826C5.61651 0.145946 5.52438 0.194065 5.45238 0.265791C5.38037 0.337517 5.33189 0.429454 5.31339 0.529388L5.06651 1.8622C4.50624 2.07481 3.98431 2.3772 3.5212 2.75751L2.24307 2.30283C2.1474 2.26899 2.04368 2.26506 1.94572 2.29158C1.84776 2.31809 1.76019 2.37379 1.69464 2.45126L1.66651 2.48408C1.12633 3.12093 0.705051 3.84971 0.422761 4.63564L0.408699 4.67626C0.338386 4.87158 0.396199 5.09033 0.554012 5.22626L1.58839 6.10908C1.53995 6.40283 1.51651 6.70283 1.51651 6.9997C1.51651 7.2997 1.53995 7.5997 1.58839 7.89033L0.557136 8.77314C0.479942 8.83922 0.424693 8.92724 0.398736 9.02548C0.372779 9.12373 0.377344 9.22755 0.411824 9.32314L0.425886 9.36376C0.708699 10.1497 1.12589 10.8763 1.66964 11.5153L1.69776 11.5481C1.76347 11.6254 1.85105 11.6809 1.94895 11.7074C2.04686 11.7339 2.15049 11.7301 2.2462 11.6966L3.52432 11.2419C3.98995 11.6247 4.5087 11.9278 5.06964 12.1372L5.31651 13.47C5.33502 13.5699 5.3835 13.6619 5.4555 13.7336C5.52751 13.8053 5.61963 13.8535 5.71964 13.8716L5.76182 13.8794C6.58232 14.027 7.42258 14.027 8.24307 13.8794L8.28526 13.8716C8.38527 13.8535 8.47739 13.8053 8.5494 13.7336C8.6214 13.6619 8.66988 13.5699 8.68839 13.47L8.9337 12.1434C9.49932 11.931 10.0212 11.6294 10.4899 11.245L11.7587 11.6966C11.8544 11.7304 11.9581 11.7343 12.0561 11.7078C12.154 11.6813 12.2416 11.6256 12.3071 11.5481L12.3353 11.5153C12.879 10.8731 13.2962 10.1497 13.579 9.36376L13.5931 9.32314C13.6603 9.12939 13.6024 8.9122 13.4446 8.77626ZM7.00245 9.59189C5.48526 9.59189 4.25557 8.3622 4.25557 6.84501C4.25557 5.32783 5.48526 4.09814 7.00245 4.09814C8.51964 4.09814 9.74932 5.32783 9.74932 6.84501C9.74932 8.3622 8.51964 9.59189 7.00245 9.59189Z" fill="#0F0F14"/>
</svg>
