<svg width="20" height="20" viewBox="0 0 20 20" fill="none" xmlns="http://www.w3.org/2000/svg">
<path fill-rule="evenodd" clip-rule="evenodd" d="M7.5 9.16666C8.88071 9.16666 10 8.04737 10 6.66666C10 5.28594 8.88071 4.16666 7.5 4.16666C6.3351 4.16666 5.35629 4.96339 5.07876 6.04166H2.5C2.15482 6.04166 1.875 6.32148 1.875 6.66666C1.875 7.01183 2.15482 7.29166 2.5 7.29166H5.07876C5.35629 8.36992 6.3351 9.16666 7.5 9.16666ZM11.875 6.66666C11.875 6.32148 12.1548 6.04166 12.5 6.04166H17.5C17.8452 6.04166 18.125 6.32148 18.125 6.66666C18.125 7.01183 17.8452 7.29166 17.5 7.29166H12.5C12.1548 7.29166 11.875 7.01183 11.875 6.66666ZM14.9212 13.9583C14.6437 15.0366 13.6649 15.8333 12.5 15.8333C11.1193 15.8333 10 14.714 10 13.3333C10 11.9526 11.1193 10.8333 12.5 10.8333C13.6649 10.8333 14.6437 11.6301 14.9212 12.7083H17.5C17.8452 12.7083 18.125 12.9881 18.125 13.3333C18.125 13.6785 17.8452 13.9583 17.5 13.9583H14.9212ZM1.875 13.3333C1.875 12.9881 2.15482 12.7083 2.5 12.7083H7.5C7.84518 12.7083 8.125 12.9881 8.125 13.3333C8.125 13.6785 7.84518 13.9583 7.5 13.9583H2.5C2.15482 13.9583 1.875 13.6785 1.875 13.3333Z" fill="black"/>
</svg>
