<svg width="21" height="19" viewBox="0 0 21 19" fill="none" xmlns="http://www.w3.org/2000/svg">
<path d="M5.05379 17.2294C4.86231 17.3351 4.63698 17.1614 4.69057 16.9493L5.83629 12.4156C6.00495 11.7482 5.76668 11.0439 5.22746 10.616L1.45594 7.62308C1.27812 7.48196 1.36525 7.19601 1.59155 7.17803L6.75604 6.76768C7.38661 6.71758 7.94107 6.33108 8.20624 5.75679L10.273 1.28066C10.3624 1.08706 10.6376 1.08707 10.727 1.28066L12.7938 5.75679C13.0589 6.33108 13.6134 6.71758 14.244 6.76768L19.4085 7.17803C19.6347 7.19601 19.7219 7.48196 19.5441 7.62307L15.7725 10.616C15.2333 11.0439 14.995 11.7482 15.1637 12.4156L16.3094 16.9493C16.363 17.1614 16.1377 17.3351 15.9462 17.2294L11.3459 14.6893C10.8194 14.3986 10.1806 14.3986 9.6541 14.6893L5.05379 17.2294Z" fill="none" stroke="#0F0F14" stroke-width="1.5"/>
</svg>
