<svg width="20" height="18" viewBox="0 0 20 18" fill="none" xmlns="http://www.w3.org/2000/svg">
<path d="M5.22746 17.834C4.46615 18.2734 3.54897 17.5874 3.75551 16.7329L4.84844 12.2116C4.93814 11.8405 4.80874 11.4507 4.51494 11.207L0.88453 8.19506C0.19517 7.62314 0.547609 6.50302 1.44025 6.42887L6.32802 6.02286C6.69291 5.99255 7.01206 5.76524 7.15999 5.4303L9.08525 1.07117C9.43621 0.276517 10.5638 0.276519 10.9148 1.07117L12.84 5.4303C12.9879 5.76524 13.3071 5.99255 13.672 6.02286L18.5597 6.42887C19.4524 6.50302 19.8048 7.62314 19.1155 8.19506L15.4851 11.207C15.1913 11.4507 15.0619 11.8405 15.1516 12.2116L16.2445 16.7329C16.451 17.5874 15.5339 18.2734 14.7725 17.834L10.4999 15.3675C10.1906 15.189 9.80943 15.189 9.50006 15.3675L5.22746 17.834Z" fill="#AC95D2"/>
</svg>
